<svg width="2000" height="2000" version="1.1" xmlns="http://www.w3.org/2000/svg" desc="Created with imagetracer.js version 1.2.6">
  <path fill="rgb(0,0,0)" stroke="rgb(0,0,0)" stroke-width="1" opacity="1" d="M 980 113 L 976 115 L 942 149 L 881 216 L 816 292 L 734 394 L 656 499 L 590 591 L 553 646 L 522 697 L 482 774 L 454 836 L 430 894 L 403 971 L 379 1062 L 373 1091 L 371 1109 L 368 1122 L 368 1128 L 367 1129 L 367 1135 L 366 1136 L 365 1150 L 364 1151 L 362 1184 L 361 1185 L 361 1195 L 360 1196 L 360 1208 L 359 1209 L 359 1277 L 361 1285 L 363 1323 L 376 1395 L 386 1429 L 404 1477 L 428 1525 L 456 1570 L 479 1600 L 505 1629 L 529 1652 L 553 1673 L 613 1716 L 644 1734 L 690 1757 L 718 1769 L 774 1789 L 842 1807 L 873 1812 L 879 1814 L 884 1814 L 890 1816 L 908 1817 L 927 1821 L 947 1822 L 948 1823 L 979 1823 L 980 1824 L 985 1824 L 986 1823 L 1038 1822 L 1039 1821 L 1048 1821 L 1049 1820 L 1081 1816 L 1087 1814 L 1112 1811 L 1174 1797 L 1238 1777 L 1291 1755 L 1347 1726 L 1394 1695 L 1441 1657 L 1469 1629 L 1502 1590 L 1530 1548 L 1553 1504 L 1574 1452 L 1584 1418 L 1596 1356 L 1599 1313 L 1601 1302 L 1601 1240 L 1600 1239 L 1600 1229 L 1599 1228 L 1599 1217 L 1598 1216 L 1597 1192 L 1593 1170 L 1593 1164 L 1590 1153 L 1588 1132 L 1584 1114 L 1584 1109 L 1575 1075 L 1569 1045 L 1552 986 L 1527 914 L 1499 844 L 1465 768 L 1416 670 L 1366 576 L 1341 533 L 1296 461 L 1252 397 L 1190 317 L 1144 263 L 1096 211 L 1053 167 L 1045 161 L 1037 153 L 997 116 L 989 113 L 980 113 Z" />
  <path fill="rgb(0,0,0)" stroke="rgb(0,0,0)" stroke-width="1" opacity="1" d="M 979.5 785 L 986.5 785 L 993.5 789 L 1042 835.5 L 1077 873.5 L 1110 913.5 L 1144 959.5 L 1164 989.5 L 1190 1032.5 L 1217 1081.5 L 1252 1151.5 L 1290 1241.5 L 1314 1317.5 L 1323 1359.5 L 1326 1383.5 L 1327 1384.5 L 1330 1415.5 L 1331 1416.5 L 1331 1425.5 L 1332 1426.5 L 1332 1462.5 L 1331 1463.5 L 1330 1483.5 L 1329 1484.5 L 1329 1490.5 L 1324 1518.5 L 1319 1537.5 L 1305 1575.5 L 1292 1600.5 L 1282 1615.5 L 1263 1640.5 L 1247.5 1657 L 1223.5 1678 L 1199.5 1695 L 1173.5 1710 L 1131.5 1729 L 1085.5 1744 L 1053.5 1751 L 1034.5 1753 L 1020.5 1756 L 1013.5 1756 L 1012.5 1757 L 980.5 1759 L 979.5 1758 L 967.5 1758 L 966.5 1757 L 954.5 1757 L 953.5 1756 L 939.5 1755 L 890.5 1746 L 850.5 1734 L 819.5 1722 L 787.5 1706 L 760.5 1689 L 734.5 1669 L 705 1640.5 L 682 1611.5 L 666 1585.5 L 653 1558.5 L 642 1528.5 L 635 1500.5 L 635 1495.5 L 632 1482.5 L 632 1475.5 L 631 1474.5 L 631 1467.5 L 630 1466.5 L 630 1458.5 L 629 1457.5 L 629 1400.5 L 630 1399.5 L 630 1388.5 L 631 1387.5 L 631 1379.5 L 632 1378.5 L 635 1347.5 L 645 1302.5 L 651 1285.5 L 655 1268.5 L 667 1233.5 L 687 1184.5 L 719 1119.5 L 760 1054.5 L 850 931.5 L 912 855.5 L 971.5 790 L 979.5 785 Z" />
  <path fill="rgb(254,254,254)" stroke="rgb(254,254,254)" stroke-width="1" opacity="1" d="M 979.5 113 L 988.5 113 L 996.5 116 L 1037 152.5 L 1044.5 161 L 1052.5 167 L 1096 210.5 L 1144 262.5 L 1190 316.5 L 1252 396.5 L 1296 460.5 L 1341 532.5 L 1366 575.5 L 1416 669.5 L 1465 767.5 L 1499 843.5 L 1527 913.5 L 1552 985.5 L 1569 1044.5 L 1575 1074.5 L 1584 1108.5 L 1584 1113.5 L 1588 1131.5 L 1590 1152.5 L 1593 1163.5 L 1593 1169.5 L 1597 1191.5 L 1598 1215.5 L 1599 1216.5 L 1599 1227.5 L 1600 1228.5 L 1600 1238.5 L 1601 1239.5 L 1601 1301.5 L 1599 1312.5 L 1596 1355.5 L 1584 1417.5 L 1574 1451.5 L 1553 1503.5 L 1530 1547.5 L 1502 1589.5 L 1469 1628.5 L 1440.5 1657 L 1393.5 1695 L 1346.5 1726 L 1290.5 1755 L 1237.5 1777 L 1173.5 1797 L 1111.5 1811 L 1086.5 1814 L 1080.5 1816 L 1048.5 1820 L 1047.5 1821 L 1038.5 1821 L 1037.5 1822 L 985.5 1823 L 984.5 1824 L 979.5 1824 L 978.5 1823 L 947.5 1823 L 946.5 1822 L 926.5 1821 L 907.5 1817 L 889.5 1816 L 883.5 1814 L 878.5 1814 L 872.5 1812 L 841.5 1807 L 773.5 1789 L 717.5 1769 L 689.5 1757 L 643.5 1734 L 612.5 1716 L 552.5 1673 L 528.5 1652 L 505 1628.5 L 479 1599.5 L 456 1569.5 L 428 1524.5 L 404 1476.5 L 386 1428.5 L 376 1394.5 L 363 1322.5 L 361 1284.5 L 359 1276.5 L 359 1208.5 L 360 1207.5 L 360 1195.5 L 361 1194.5 L 361 1184.5 L 362 1183.5 L 364 1150.5 L 365 1149.5 L 366 1135.5 L 367 1134.5 L 367 1128.5 L 368 1127.5 L 368 1121.5 L 371 1108.5 L 373 1090.5 L 379 1061.5 L 403 970.5 L 430 893.5 L 454 835.5 L 482 773.5 L 522 696.5 L 553 645.5 L 590 590.5 L 656 498.5 L 734 393.5 L 816 291.5 L 881 215.5 L 942 148.5 L 975.5 115 L 979.5 113 Z M 980 785 L 972 790 L 912 856 L 850 932 L 760 1055 L 719 1120 L 687 1185 L 667 1234 L 655 1269 L 651 1286 L 645 1303 L 635 1348 L 632 1379 L 631 1380 L 631 1388 L 630 1389 L 630 1400 L 629 1401 L 629 1458 L 630 1459 L 630 1467 L 631 1468 L 631 1475 L 632 1476 L 632 1483 L 635 1496 L 635 1501 L 642 1529 L 653 1559 L 666 1586 L 682 1612 L 705 1641 L 735 1669 L 761 1689 L 788 1706 L 820 1722 L 851 1734 L 891 1746 L 940 1755 L 954 1756 L 955 1757 L 967 1757 L 968 1758 L 980 1758 L 981 1759 L 1013 1757 L 1014 1756 L 1021 1756 L 1035 1753 L 1054 1751 L 1086 1744 L 1132 1729 L 1174 1710 L 1200 1695 L 1224 1678 L 1248 1657 L 1263 1641 L 1282 1616 L 1292 1601 L 1305 1576 L 1319 1538 L 1324 1519 L 1329 1491 L 1329 1485 L 1330 1484 L 1331 1464 L 1332 1463 L 1332 1427 L 1331 1426 L 1331 1417 L 1330 1416 L 1327 1385 L 1326 1384 L 1323 1360 L 1314 1318 L 1290 1242 L 1252 1152 L 1217 1082 L 1190 1033 L 1164 990 L 1144 960 L 1110 914 L 1077 874 L 1042 836 L 994 789 L 987 785 L 980 785 Z" />
</svg>